<?xml version="1.0" encoding="UTF-8" standalone="no"?>
<!-- Created with Inkscape (http://www.inkscape.org/) -->

<svg
   width="16mm"
   height="16mm"
   viewBox="0 0 16 16"
   version="1.1"
   id="svg1"
   sodipodi:docname="dialogue_condition_icon.svg"
   inkscape:version="1.3.2 (091e20e, 2023-11-25, custom)"
   xmlns:inkscape="http://www.inkscape.org/namespaces/inkscape"
   xmlns:sodipodi="http://sodipodi.sourceforge.net/DTD/sodipodi-0.dtd"
   xmlns="http://www.w3.org/2000/svg"
   xmlns:svg="http://www.w3.org/2000/svg">
  <sodipodi:namedview
     id="namedview1"
     pagecolor="#505050"
     bordercolor="#ffffff"
     borderopacity="1"
     inkscape:showpageshadow="0"
     inkscape:pageopacity="0"
     inkscape:pagecheckerboard="1"
     inkscape:deskcolor="#505050"
     inkscape:document-units="mm"
     showguides="false"
     inkscape:connector-spacing="3"
     inkscape:zoom="11.313709"
     inkscape:cx="16.83798"
     inkscape:cy="44.724504"
     inkscape:window-width="1920"
     inkscape:window-height="1017"
     inkscape:window-x="-8"
     inkscape:window-y="-8"
     inkscape:window-maximized="1"
     inkscape:current-layer="layer1" />
  <defs
     id="defs1">
    <rect
       x="6.5407377"
       y="-1.9445436"
       width="40.022373"
       height="48.414911"
       id="rect28" />
    <rect
       x="10.125"
       y="2.625"
       width="36.779851"
       height="43.717161"
       id="rect26" />
    <rect
       x="7.125"
       y="8.125"
       width="48.875"
       height="45.625"
       id="rect24" />
    <rect
       x="19.625"
       y="14.75"
       width="18.625"
       height="28.875"
       id="rect23" />
    <inkscape:path-effect
       effect="bspline"
       id="path-effect1"
       is_visible="true"
       lpeversion="1.3"
       weight="33.333333"
       steps="2"
       helper_size="0"
       apply_no_weight="true"
       apply_with_weight="true"
       only_selected="false"
       uniform="false" />
  </defs>
  <g
     inkscape:label="Layer 1"
     inkscape:groupmode="layer"
     id="layer1">
    <path
       id="path1"
       style="fill:#ffffff;stroke-width:0.264583"
       d="M 8.0000294 0.66645409 C 6.0000577 0.66646077 3.9999961 1.3335083 2.6666414 2.6668633 C 0.1646654 5.1688392 0.010502274 10.017954 2.2033628 12.809913 L 2.2038365 12.810626 C 2.3480737 12.994216 2.5020988 13.168799 2.6666414 13.333338 C 2.6725914 13.339238 2.6791407 13.34451 2.6851157 13.35043 C 3.4350941 14.381361 2.7488067 15.650909 2.2796285 18.043451 C 4.5411032 16.474115 5.7304253 15.23365 7.4746961 15.315944 C 9.6443899 15.44307 11.883184 14.783574 13.333417 13.333338 C 16.000129 10.66663 16.000076 5.3335195 13.333417 2.6668633 C 12.000091 1.333537 10.000001 0.66644742 8.0000294 0.66645409 z M 7.8394451 1.7303955 C 8.3015943 1.7303955 8.697076 1.8273596 9.0260635 2.0216619 C 9.3550511 2.2100762 9.6233043 2.4662269 9.8308798 2.790064 C 10.042372 3.1139011 10.197193 3.485099 10.295106 3.9031432 C 10.393019 4.3211875 10.441953 4.762581 10.441953 5.2277289 C 10.441953 5.7105405 10.394787 6.1466186 10.30079 6.5352231 C 10.21071 6.9238276 10.08124 7.2588594 9.9128299 7.5414809 C 9.7483361 7.8241024 9.5485905 8.0508268 9.3135994 8.2215773 C 9.0825248 8.3923278 8.8263 8.5013473 8.5443107 8.5484508 L 8.4974144 10.271124 C 8.4934978 10.377107 8.4365449 10.455988 8.3268824 10.50898 C 8.2211364 10.561972 8.0663153 10.58874 7.8626564 10.58874 C 7.7334113 10.58874 7.6239885 10.586082 7.5339086 10.580194 C 7.4477452 10.568418 7.3792376 10.550335 7.3283228 10.526784 C 7.2774081 10.503232 7.2400287 10.471148 7.2165296 10.429932 C 7.1930305 10.388717 7.1792342 10.335892 7.1753177 10.271124 L 7.122737 8.1866823 C 7.1188205 7.998268 7.1245979 7.8451091 7.1402639 7.7273502 C 7.15593 7.6095912 7.1830488 7.5152848 7.222214 7.4446295 C 7.2652957 7.3739741 7.3182392 7.327177 7.3809035 7.3036252 C 7.4435678 7.2741854 7.5183265 7.2594723 7.6044899 7.2594723 L 7.68644 7.2594723 C 7.8940155 7.2594723 8.0724196 7.2093053 8.2212473 7.1092102 C 8.3739915 7.0091151 8.4989784 6.876697 8.5968913 6.7118345 C 8.6948043 6.546972 8.7655535 6.3523315 8.8086352 6.1285895 C 8.8556335 5.9048475 8.8792165 5.6667799 8.8792165 5.4135981 C 8.8792165 5.1309767 8.851624 4.8714561 8.7967927 4.6359382 C 8.745878 4.4004203 8.6658157 4.1970944 8.5561532 4.0263439 C 8.4504072 3.8555935 8.3151597 3.7265453 8.150666 3.6382261 C 7.9900887 3.5440189 7.8001299 3.4965097 7.5808049 3.4965097 C 7.3810625 3.4965097 7.2049 3.5259359 7.0521557 3.5848154 C 6.8994115 3.6436948 6.7681736 3.708575 6.6585111 3.7792304 C 6.5488485 3.8498857 6.4567578 3.9147659 6.382344 3.9736454 C 6.3118466 4.0325248 6.2571353 4.0619511 6.2179701 4.0619511 C 6.1905545 4.0619511 6.1647298 4.0498957 6.1412307 4.0263439 C 6.1177316 3.9969042 6.098158 3.9474493 6.0824919 3.8767939 C 6.0668258 3.8061386 6.0535032 3.7058045 6.0417537 3.5762697 C 6.0339207 3.4467348 6.0299112 3.2815206 6.0299112 3.0813304 C 6.0299112 2.8752522 6.0356885 2.7254633 6.0474381 2.6312561 C 6.0591876 2.537049 6.0845386 2.4608256 6.1237038 2.4019461 C 6.162869 2.3430667 6.2376277 2.2748166 6.3472902 2.1982733 C 6.4569527 2.115842 6.5877169 2.0422764 6.7404612 1.977509 C 6.8932054 1.9068537 7.0635905 1.8480012 7.2515834 1.8008976 C 7.4395763 1.753794 7.6357861 1.7303955 7.8394451 1.7303955 z M 7.8744989 11.481055 C 8.0311596 11.481055 8.1623976 11.504454 8.2681436 11.551557 C 8.3778061 11.592773 8.4641195 11.666338 8.5267838 11.772321 C 8.5933646 11.872416 8.6382891 12.007492 8.6617882 12.178243 C 8.6892039 12.343105 8.7030001 12.549801 8.7030001 12.797095 C 8.7030001 13.038501 8.6892039 13.241114 8.6617882 13.405977 C 8.6382891 13.57084 8.5933646 13.703258 8.5267838 13.803353 C 8.4641195 13.903448 8.3778061 13.974356 8.2681436 14.015571 C 8.1623976 14.062675 8.0311596 14.086073 7.8744989 14.086073 C 7.7100051 14.086073 7.5747577 14.062675 7.4690117 14.015571 C 7.3632657 13.974356 7.277426 13.903448 7.2108452 13.803353 C 7.1481809 13.703258 7.1027827 13.57084 7.075367 13.405977 C 7.0518679 13.241114 7.0403132 13.038501 7.0403132 12.797095 C 7.0403132 12.549801 7.0518679 12.343105 7.075367 12.178243 C 7.1027827 12.007492 7.1481809 11.872416 7.2108452 11.772321 C 7.277426 11.666338 7.3632657 11.592773 7.4690117 11.551557 C 7.5747577 11.504454 7.7100051 11.481055 7.8744989 11.481055 z "
       transform="matrix(1.0909106,0,0,0.72564703,-0.72728837,1.8754187)" />
    <text
       xml:space="preserve"
       transform="scale(0.26458333)"
       id="text26"
       style="font-style:normal;font-variant:normal;font-weight:normal;font-stretch:normal;font-size:40px;font-family:Calibri;-inkscape-font-specification:Calibri;white-space:pre;shape-inside:url(#rect26);fill:#353535;fill-opacity:1"><tspan
         x="10.125"
         y="81.341797"
         id="tspan1">?</tspan></text>
  </g>
</svg>
